<?xml version="1.0" standalone="no"?>
<!DOCTYPE svg PUBLIC "-//W3C//DTD SVG 20010904//EN"
 "http://www.w3.org/TR/2001/REC-SVG-20010904/DTD/svg10.dtd">
<svg version="1.0" xmlns="http://www.w3.org/2000/svg"
 width="50.000000pt" height="50.000000pt" viewBox="0 0 50.000000 50.000000"
 preserveAspectRatio="xMidYMid meet">

<g transform="translate(0.000000,50.000000) scale(0.100000,-0.100000)"
fill="#000000" stroke="none">
<path d="M148 359 c-27 -15 -22 -32 5 -18 22 12 22 12 3 -9 -10 -12 -23 -19
-27 -16 -5 3 -9 -2 -9 -10 0 -8 5 -18 10 -21 6 -3 10 -20 10 -37 0 -22 -4 -29
-15 -25 -12 5 -12 2 -3 -18 17 -37 30 -19 28 39 -3 69 -2 73 15 80 10 4 19 -2
24 -17 10 -26 3 -50 -12 -40 -7 4 -8 -2 -3 -18 4 -13 11 -39 16 -58 12 -48 28
-61 46 -37 13 19 14 18 26 -15 7 -19 12 -37 11 -40 -1 -3 4 -6 11 -6 11 0 10
9 -1 45 -7 25 -20 53 -29 63 -8 9 -19 45 -24 80 -11 80 -38 104 -82 78z"/>
<path d="M134 138 c-4 -6 -3 -8 4 -4 6 3 15 -2 21 -11 12 -20 14 -13 5 11 -7
19 -20 21 -30 4z"/>
<path d="M285 60 c-3 -5 1 -10 9 -10 8 0 18 5 21 10 3 6 -1 10 -9 10 -8 0 -18
-4 -21 -10z"/>
</g>
</svg>
